<svg width="650" height="504" viewBox="0 0 650 504" fill="none" xmlns="http://www.w3.org/2000/svg">
<path d="M648.874 120.56C649.018 120.719 649.1 120.924 649.107 121.138C649.115 121.352 649.046 121.561 648.914 121.73C645.634 125.883 643.024 129.073 641.084 131.3C635.224 138.04 624.251 150.98 608.164 170.12C577.304 206.827 561.598 225.507 561.044 226.16C551.011 237.98 544.011 246.37 540.044 251.33C529.484 264.54 516.414 279.23 504.234 294.36C500.514 298.987 495.468 304.853 489.094 311.96C477.628 324.733 465.588 338.56 452.974 353.44C447.261 360.18 439.094 369.55 439.094 369.55C432.121 377.423 427.448 382.75 425.074 385.53C398.401 416.757 367.371 453.563 331.984 495.95C330.864 497.29 329.374 499.38 327.514 502.22C326.634 503.573 325.651 503.58 324.564 502.24C313.454 488.62 296.614 469.02 270.604 439.06C251.438 416.987 233.631 396.217 217.184 376.75C193.751 349.017 170.111 321.24 146.264 293.42C144.811 291.72 143.351 290 141.884 288.26C121.771 264.34 107.554 247.58 99.2343 237.98C88.601 225.713 79.8743 215.52 73.0543 207.4C73.0543 207.4 24.0143 150.93 0.884277 123.78C-0.945723 121.63 0.374281 120.82 2.04428 118.99C29.3643 88.89 58.5243 55.82 86.6443 24.86C86.6443 24.86 98.2076 11.9967 104.534 4.75C105.268 3.91 106.438 2.70333 108.044 1.13C108.775 0.405849 109.764 -0.000288376 110.794 1.53629e-07H539.514C539.766 0.000219798 540.014 0.0528509 540.244 0.154486C540.473 0.256121 540.677 0.404494 540.844 0.59L648.874 120.56Z" fill="#303131"/>
</svg>
