<svg width="523" height="287" viewBox="0 0 523 287" fill="none" xmlns="http://www.w3.org/2000/svg">
<path d="M0.594287 94.82C28.9543 63 55.5543 31.8933 80.3943 1.49999C80.7256 1.09645 81.1423 0.77144 81.6144 0.548371C82.0865 0.325301 82.6022 0.209732 83.1243 0.209992C217.838 0.269992 350.621 0.269992 481.474 0.209992C483.168 0.209992 484.561 0.419993 485.654 0.839993C485.977 0.964914 486.268 1.16332 486.504 1.41999L522.224 40.85C522.316 40.9502 522.366 41.0821 522.364 41.2193C522.362 41.3565 522.309 41.4888 522.214 41.59L383.584 184.95C383.498 185.038 383.394 185.108 383.28 185.155C383.166 185.202 383.043 185.225 382.92 185.224C382.796 185.222 382.675 185.195 382.562 185.144C382.449 185.094 382.348 185.021 382.264 184.93L372.784 174.39C372.656 174.251 372.483 174.161 372.296 174.138C372.109 174.114 371.921 174.157 371.764 174.26L358.004 183.18C357.831 183.29 357.623 183.332 357.422 183.299C357.221 183.266 357.04 183.159 356.914 183L297.104 108.46C297.037 108.376 296.951 108.309 296.855 108.263C296.758 108.217 296.652 108.193 296.544 108.193C296.437 108.193 296.331 108.217 296.234 108.263C296.137 108.309 296.052 108.376 295.984 108.46C263.624 148.77 237.094 182.53 210.644 218.94C210.577 219.032 210.49 219.108 210.39 219.164C210.291 219.219 210.181 219.253 210.067 219.262C209.953 219.272 209.839 219.257 209.732 219.218C209.624 219.18 209.526 219.119 209.444 219.04L199.434 209.37C199.345 209.284 199.239 209.217 199.123 209.172C199.008 209.128 198.885 209.107 198.762 209.112C198.639 209.117 198.52 209.147 198.41 209.2C198.3 209.252 198.203 209.327 198.124 209.42C191.991 216.46 183.921 226.193 173.914 238.62C161.641 253.867 148.961 269.823 135.874 286.49C135.787 286.603 135.675 286.694 135.547 286.758C135.419 286.822 135.279 286.857 135.136 286.86C134.994 286.863 134.852 286.834 134.722 286.775C134.592 286.716 134.477 286.629 134.384 286.52L118.774 268.34C118.492 268.01 118.343 267.586 118.356 267.151C118.369 266.717 118.543 266.303 118.844 265.99C126.531 258.05 133.548 250.587 139.894 243.6C160.664 220.72 173.854 207.28 206.884 172.6C249.654 127.67 264.784 111.05 313.414 58.58C313.487 58.5028 313.535 58.406 313.553 58.3015C313.571 58.1971 313.558 58.0897 313.515 57.9927C313.473 57.8956 313.402 57.8133 313.313 57.7559C313.224 57.6986 313.12 57.6687 313.014 57.67C287.561 57.71 224.294 57.7067 123.214 57.66C112.974 57.6533 106.191 58.1367 102.864 59.11C87.0043 63.74 75.7443 78.03 73.8643 94.45C73.8398 94.6639 73.7378 94.8615 73.5774 95.0052C73.4171 95.149 73.2096 95.2289 72.9943 95.23H0.774287C0.727562 95.2315 0.681801 95.2189 0.642558 95.1939C0.603315 95.1689 0.572278 95.1324 0.553218 95.089C0.534157 95.0456 0.527892 94.9971 0.535182 94.9493C0.542472 94.9016 0.563005 94.8566 0.594287 94.82Z" fill="#F4B753"/>
</svg>
