<svg width="205" height="151" viewBox="0 0 205 151" fill="none" xmlns="http://www.w3.org/2000/svg">
<path d="M204.184 113.34C204.911 114.033 205.081 114.493 204.694 114.72L147.684 80.06C147.479 79.9357 147.248 79.8583 147.01 79.8335C146.771 79.8086 146.53 79.8369 146.304 79.9164C146.078 79.9958 145.873 80.1244 145.704 80.2928C145.534 80.4612 145.405 80.6652 145.324 80.89L128.704 127.06C128.674 127.144 128.62 127.218 128.549 127.272C128.478 127.326 128.393 127.358 128.304 127.364C128.215 127.37 128.126 127.351 128.048 127.307C127.97 127.264 127.906 127.199 127.864 127.12L107.044 89.43C107 89.3494 106.938 89.2793 106.864 89.2248C106.79 89.1703 106.705 89.1327 106.615 89.1146C106.526 89.0965 106.433 89.0983 106.345 89.12C106.257 89.1416 106.175 89.1826 106.104 89.24C90.6043 101.667 75.7476 113.253 61.5343 124C59.9943 125.173 58.7743 125.957 57.8743 126.35C53.1876 128.383 39.2543 134.19 16.0743 143.77C13.821 144.703 8.61763 147.113 0.464294 151C0.484294 149.953 0.687628 149.367 1.0743 149.24L38.3543 105.36C38.5716 105.102 38.8797 104.938 39.2137 104.903C39.5476 104.867 39.8813 104.963 40.1443 105.17C41.3043 106.077 43.4376 107.857 46.5443 110.51C48.691 112.337 50.6076 112.09 52.2943 109.77C74.441 79.41 100.784 42.9833 131.324 0.490002C131.371 0.424963 131.434 0.374137 131.508 0.343228C131.582 0.312318 131.662 0.302538 131.741 0.314999C131.82 0.32746 131.894 0.361663 131.955 0.413769C132.015 0.465875 132.06 0.533825 132.084 0.609997C142.258 32.6033 147.521 49.1667 147.874 50.3C148.441 52.1133 149.691 53.73 151.624 55.15C156.454 58.7 161.684 61.45 165.574 66.09C177.248 80.03 188.364 93.83 198.924 107.49C200.051 108.943 201.804 110.893 204.184 113.34Z" fill="#F0EADB"/>
<path d="M204.694 114.72C204.428 115.387 204.111 115.607 203.744 115.38C186.498 104.78 167.964 93.4867 148.144 81.5C146.998 80.8067 146.181 81.3833 145.694 83.23C144.448 87.9233 142.984 92.1067 141.304 95.78C141.151 96.1193 141.031 96.4708 140.944 96.83C140.678 97.93 140.288 99.15 139.774 100.49C137.894 105.39 134.794 113.84 130.474 125.84C130.161 126.7 129.521 127.27 128.554 127.55C127.674 127.803 126.961 127.39 126.414 126.31C126.394 126.283 126.204 125.953 125.844 125.32C119.358 114.06 113.498 103.43 108.264 93.43C107.784 92.5167 107.151 91.7267 106.364 91.06C106.322 91.0259 106.269 91.0073 106.214 91.0073C106.16 91.0073 106.107 91.0259 106.064 91.06L58.9443 127.19C58.8448 127.27 58.7303 127.337 58.6043 127.39L11.9143 146.82C11.7413 146.893 11.5773 146.98 11.4243 147.08C8.07762 149.227 4.42429 150.533 0.464294 151C8.61763 147.113 13.821 144.703 16.0743 143.77C39.2543 134.19 53.1876 128.383 57.8743 126.35C58.7743 125.957 59.9943 125.173 61.5343 124C75.7476 113.253 90.6043 101.667 106.104 89.24C106.175 89.1826 106.257 89.1417 106.345 89.12C106.433 89.0983 106.526 89.0965 106.615 89.1146C106.705 89.1327 106.79 89.1703 106.864 89.2248C106.938 89.2793 107 89.3494 107.044 89.43L127.864 127.12C127.906 127.199 127.97 127.264 128.048 127.307C128.126 127.351 128.215 127.37 128.304 127.364C128.393 127.358 128.478 127.326 128.549 127.272C128.62 127.218 128.674 127.144 128.704 127.06L145.324 80.89C145.405 80.6652 145.534 80.4612 145.704 80.2928C145.873 80.1244 146.078 79.9958 146.304 79.9164C146.53 79.8369 146.771 79.8086 147.01 79.8335C147.248 79.8583 147.479 79.9357 147.684 80.06L204.694 114.72Z" fill="#F0EADB"/>
</svg>
