<svg width="338" height="127" viewBox="0 0 338 127" fill="none" xmlns="http://www.w3.org/2000/svg">
<path d="M0.744276 74.9C0.699762 74.849 0.671015 74.7861 0.661513 74.719C0.652011 74.652 0.662168 74.5836 0.690749 74.5222C0.71933 74.4608 0.765097 74.409 0.822524 74.3732C0.87995 74.3373 0.946569 74.3188 1.01428 74.32C134.794 74.3067 204.281 74.2967 209.474 74.29C231.754 74.28 251.264 62.91 267.174 48.38C282.654 34.24 298.591 18.34 314.984 0.68001C315.101 0.556802 315.241 0.458646 315.396 0.391589C315.55 0.324532 315.717 0.289967 315.884 0.289996H336.784C336.848 0.289761 336.911 0.305947 336.966 0.336962C337.022 0.367978 337.068 0.412777 337.101 0.467059C337.135 0.521341 337.153 0.583262 337.155 0.646838C337.158 0.710413 337.143 0.773501 337.114 0.830004C336.761 1.53 336.161 2.43667 335.314 3.55001C332.781 6.87667 325.121 16.21 312.334 31.55C301.241 44.8567 295.464 51.79 295.004 52.35C283.674 66.18 274.394 76.83 263.324 89.28C247.051 107.573 236.811 119.253 232.604 124.32C231.578 125.56 230.534 126.18 229.474 126.18C160.174 126.053 99.2843 126.073 46.8043 126.24C46.1769 126.24 45.5572 126.105 44.9876 125.845C44.4181 125.584 43.9121 125.204 43.5043 124.73L0.744276 74.9Z" fill="#F4B753"/>
</svg>
